<svg width="180" height="45" viewBox="0 0 180 45" fill="none" xmlns="http://www.w3.org/2000/svg">
<g clip-path="url(#clip0_380_1435)">
<path d="M30.327 5.31735C27.5965 3.03466 23.8586 1.90674 19.0869 1.90674H7.21061V3.59861H18.8748C22.9308 3.59861 26.5891 4.43113 28.8424 6.41841C31.0957 8.4057 32.7658 11.3061 32.7658 14.9047C32.7658 18.3958 31.2813 20.9471 28.975 22.9075C26.6686 24.8679 22.4801 25.7273 18.3181 25.7273H4.93079V27.4192H18.4242C23.4345 27.4192 27.3579 26.3181 30.1944 24.116C33.0044 21.9139 34.4359 18.7987 34.4359 14.7972C34.4359 10.7152 33.0574 7.57319 30.327 5.31735Z" fill="#E4E4E4"/>
<path d="M29.3196 7.73435C27.623 6.41845 25.6878 5.37109 20.1738 5.37109H11.0015V7.00926C11.0015 7.00926 15.1104 6.95555 19.9617 7.00926C24.6539 7.06297 26.377 7.60008 27.9676 8.78171C29.9823 10.2856 31.2548 12.1655 31.2548 14.7704C31.2548 17.2948 29.9823 19.0673 27.9411 20.598C25.8733 22.1556 22.6922 22.1556 21.3932 22.2093C20.916 22.2093 14.5803 22.2093 14.5803 22.2093V23.8475C14.5803 23.8475 17.7084 23.9012 19.6701 23.8475C24.1237 23.7401 26.7747 23.4715 29.2401 21.6185C31.5464 19.8729 32.7658 17.5902 32.7658 14.6899C32.7658 10.8764 30.8571 8.96969 29.3196 7.73435Z" fill="#E4E4E4"/>
<path d="M28.4978 9.90953C27.2253 9.10388 26.1119 8.56677 20.8365 8.56677H14.2356V9.64098H20.651C25.3166 9.64098 27.0663 10.4735 27.623 10.8226C28.6834 11.4671 30.0619 12.5413 30.0619 14.6898C30.0619 16.0594 29.2666 17.805 28.0736 18.4763C26.9867 19.094 24.9985 19.658 21.5258 19.658H0V20.7322H21.5788C25.7938 20.7322 27.2253 20.2488 28.7099 19.4163C30.1944 18.5838 31.2018 16.865 31.2018 14.6898C31.2018 12.2191 29.8498 10.7689 28.4978 9.90953Z" fill="#E4E4E4"/>
<path d="M32.6863 21.8065C29.9558 19.5238 26.218 18.3959 21.4463 18.3959H13.4934V20.0877H21.2077C25.2637 20.0877 28.922 20.9471 31.1753 22.9075C33.4286 24.868 35.1252 27.7952 35.1252 31.3938C35.1252 34.885 33.6672 37.4362 31.3343 39.3967C29.0015 41.3571 24.8395 42.2165 20.6775 42.2165H7.29016V43.9083H20.7835C25.7938 43.9083 29.7173 42.8073 32.5538 40.6051C35.3903 38.403 36.7953 35.2878 36.7953 31.2864C36.7688 27.2312 35.4168 24.0892 32.6863 21.8065Z" fill="#E4E4E4"/>
<path d="M31.6789 24.2234C29.9823 22.9343 28.0471 21.8601 22.5331 21.8601H10.0736V23.4983C10.0736 23.4983 17.4698 23.4446 22.321 23.4983C27.0132 23.552 28.7363 24.0891 30.3269 25.2707C32.3416 26.7746 33.6141 28.6545 33.6141 31.2594C33.6141 33.7838 32.3416 35.5563 30.3004 37.087C28.2327 38.6446 25.0515 38.6446 23.7525 38.6983C23.2754 38.6983 16.9396 38.6983 16.9396 38.6983V40.3365C16.9396 40.3365 20.0942 40.3902 22.0294 40.3365C26.483 40.2291 29.134 39.9605 31.5994 38.1075C33.9057 36.3619 35.1252 34.0792 35.1252 31.1789C35.1252 27.3923 33.243 25.4587 31.6789 24.2234Z" fill="#E4E4E4"/>
<path d="M12.7246 29.8096H24.4153V28.8965H12.7246V29.8096Z" fill="#E4E4E4"/>
<path d="M17.5493 33.005H24.3358V32.2262H17.5493V33.005Z" fill="#E4E4E4"/>
<path d="M7.29016 29.8096H10.7364V28.8965H7.29016V29.8096Z" fill="#E4E4E4"/>
<path d="M5.11633 33.0588H15.6406V32.1458H5.11633V33.0588Z" fill="#E4E4E4"/>
<path d="M7.71436 9.56042H11.8233V8.80847H7.71436V9.56042Z" fill="#E4E4E4"/>
<path d="M4.87769 15.6835H14.2356V14.8241H4.87769V15.6835Z" fill="#E4E4E4"/>
<path d="M5.11633 40.2291H15.0044V39.1549H5.11633V40.2291Z" fill="#E4E4E4"/>
<path d="M2.67749 43.8009H5.14288V42.2164H2.67749V43.8009Z" fill="#E4E4E4"/>
<path d="M8.82776 12.9979H24.3624V12.1385H8.82776V12.9979Z" fill="#E4E4E4"/>
<path d="M16.595 15.6835H24.0707V14.8241H16.595V15.6835Z" fill="#E4E4E4"/>
<path d="M30.8572 26.5598C29.5847 25.781 28.4713 25.2439 23.1959 25.2439H14.8189V26.2912H23.0368C27.7025 26.2912 29.4787 27.0969 30.0089 27.4192C31.0427 28.0368 32.4477 29.0573 32.4477 31.152C32.4477 32.4948 31.6524 34.1598 30.4595 34.8044C29.3726 35.3952 27.3844 35.9323 23.9117 35.9323H2.35938V36.9796H23.9382C28.1532 36.9796 29.5847 36.5231 31.0692 35.7174C32.5538 34.9118 33.5346 33.2736 33.5346 31.152C33.5611 28.8156 32.2092 27.4192 30.8572 26.5598Z" fill="#E4E4E4"/>
<path d="M52.9661 24.2235V33.8108H58.1354C60.3622 33.8108 62.1119 33.3811 63.3313 32.5218C64.5242 31.743 65.2135 30.4002 65.187 28.95C65.187 25.808 62.5625 24.2235 57.3401 24.2235H52.9661ZM52.9661 12.81V21.4037H56.863C58.9572 21.4037 60.5743 21.0009 61.7672 20.1684C62.9337 19.4164 63.6229 18.0737 63.5699 16.6772C63.5699 14.0991 61.5021 12.7832 57.3401 12.7832L52.9661 12.81ZM49.1487 36.6306V9.99023H58.4005C61.2105 9.99023 63.4373 10.5542 65.0809 11.6821C66.7245 12.81 67.5463 14.2871 67.5463 16.0864C67.5728 17.5365 67.0426 18.9599 66.0618 20.0341C65.0544 21.162 63.7024 21.9408 61.9528 22.4242V22.5048C64.1531 22.7196 65.9027 23.391 67.2017 24.5458C68.5007 25.6468 69.2164 27.285 69.1634 29.0037C69.1634 31.2864 68.156 33.1126 66.1678 34.5359C64.1796 35.9592 61.6612 36.6575 58.6126 36.6575H49.1487V36.6306Z" fill="#E4E4E4"/>
<path d="M73.405 36.6305H77.1164V17.617H73.405V36.6305ZM75.2872 12.7562C74.6775 12.7831 74.0678 12.5683 73.5906 12.1923C73.1399 11.87 72.8748 11.3329 72.9014 10.7958C72.9014 10.2319 73.1665 9.69475 73.5906 9.37248C74.0678 8.99651 74.6775 8.78167 75.2872 8.80853C75.9234 8.78167 76.5332 8.99651 77.0103 9.37248C77.7791 9.93644 77.9382 11.0107 77.408 11.7895C77.3019 11.9506 77.1694 12.0849 77.0103 12.1923C76.5332 12.5951 75.9234 12.7831 75.2872 12.7562Z" fill="#E4E4E4"/>
<path d="M93.5259 36.4425C92.6511 36.8454 91.4846 37.0333 90.0531 37.0333C85.9972 37.0333 83.9559 35.1803 83.9559 31.4474V20.1951H79.9795V17.5902H83.9559V12.9442L87.6673 11.9506V17.5902H93.4994V20.1951H87.6673V30.9103C87.6673 32.1725 87.9324 33.0856 88.4626 33.6496C88.9927 34.2135 89.8676 34.4552 91.087 34.4552C91.9353 34.4821 92.7836 34.2672 93.4994 33.8107L93.5259 36.4425Z" fill="#E4E4E4"/>
<path d="M127.272 36.6305H123.8V20.1951C123.826 18.6107 123.906 16.9993 124.091 15.4149H124.012C123.8 16.2205 123.482 17.0262 123.11 17.7781L112.904 36.6036H111.181L101.001 17.9124C100.604 17.1068 100.312 16.2743 100.1 15.388H100.021C100.153 16.9725 100.206 18.5838 100.18 20.1951V36.6036H96.813V12.1117H101.452L110.624 29.1916C111.155 30.1315 111.632 31.1252 112.003 32.1457H112.136C112.745 30.8029 113.222 29.8093 113.567 29.1379L122.925 12.1117H127.299V36.6305" fill="#E4E4E4"/>
<path d="M146.147 26.9894L140.554 27.6339C138.831 27.8219 137.532 28.171 136.657 28.6813C135.782 29.1915 135.331 30.0778 135.331 31.34C135.331 32.253 135.782 33.1124 136.551 33.6227C137.346 34.2135 138.433 34.5089 139.785 34.5089C141.641 34.5089 143.152 33.9718 144.345 32.9244C145.511 31.9308 146.174 30.4537 146.147 28.8961V26.9894ZM149.859 36.6304H146.147V33.6495H146.068C144.451 35.9322 142.065 37.0601 138.937 37.0601C136.63 37.0601 134.828 36.5499 133.502 35.5562C132.23 34.6431 131.514 33.1393 131.541 31.5548C131.541 28.0099 134.085 25.9421 139.202 25.3512L146.147 24.5456C146.147 21.323 144.557 19.7116 141.376 19.7116C138.672 19.6848 136.047 20.4904 133.82 22.0481V18.9328C136.1 17.7512 138.725 17.1604 141.694 17.1604C147.155 17.1604 149.859 19.5237 149.859 24.2502V36.6304Z" fill="#E4E4E4"/>
<path d="M167.09 20.6784C166.427 20.2756 165.499 20.0607 164.28 20.0607C162.742 20.0339 161.284 20.7053 160.303 21.9138C159.243 23.1491 158.713 24.8141 158.713 26.9357V36.6304H155.001V17.6169H158.713V21.5378H158.792C159.27 20.2756 160.118 19.1745 161.231 18.3957C162.292 17.6438 163.564 17.2678 164.89 17.2678C165.632 17.2409 166.401 17.3215 167.116 17.5364L167.09 20.6784Z" fill="#E4E4E4"/>
<path d="M180.026 36.4425C179.152 36.8454 177.985 37.0333 176.554 37.0333C172.498 37.0333 170.457 35.1803 170.457 31.4474V20.1951H166.48V17.5902H170.457V12.9442L174.168 11.9506V17.5902H180V20.1951H174.168V30.9103C174.168 32.1725 174.433 33.0856 174.963 33.6496C175.493 34.2135 176.368 34.4552 177.588 34.4552C178.436 34.4821 179.284 34.2672 180 33.8107L180.026 36.4425Z" fill="#E4E4E4"/>
</g>
<defs>
<clipPath id="clip0_380_1435">
<rect width="180" height="44.0426" fill="white"/>
</clipPath>
</defs>
</svg>
