<svg width="180" height="48" viewBox="0 0 180 48" fill="none" xmlns="http://www.w3.org/2000/svg">
<g clip-path="url(#clip0_380_1582)">
<path d="M74.4041 18.7283C73.9145 16.8156 72.6804 15.416 70.2673 15.416C66.7061 15.416 65.2169 18.5642 65.2169 21.759C65.2169 24.9538 66.7061 28.1037 70.2673 28.1037C72.8528 28.1037 74.2696 26.1685 74.5006 23.7426H77.3395C77.1068 27.7305 74.292 30.4812 70.2724 30.4812C65.2927 30.4812 62.3142 26.5158 62.3142 21.7572C62.3142 16.9987 65.2824 13.0264 70.2621 13.0264C74.0076 13.0488 76.962 15.1257 77.3119 18.7179L74.4041 18.7283Z" fill="white"/>
<path d="M79.0581 24.0363C79.0581 20.3507 81.2679 17.6933 85.1306 17.6933C88.9934 17.6933 91.2031 20.3507 91.2031 24.0363C91.2031 27.7218 88.9934 30.4052 85.1306 30.4052C81.2679 30.4052 79.0581 27.746 79.0581 24.0363ZM88.5504 24.0363C88.5504 21.9628 87.5041 19.7926 85.1306 19.7926C82.7571 19.7926 81.7108 21.9611 81.7108 24.0363C81.7108 26.1114 82.7571 28.3058 85.1306 28.3058C87.5041 28.3058 88.5504 26.1356 88.5504 24.0363Z" fill="white"/>
<path d="M93.4834 13.4238H96.1361V15.943H93.4834V13.4238ZM93.4834 18.0199H96.1361V30.0786H93.4834V18.0199Z" fill="white"/>
<path d="M99.0215 18.0199H101.535V19.7927L101.581 19.8393C101.962 19.1826 102.509 18.6383 103.167 18.2612C103.825 17.8841 104.571 17.6876 105.328 17.6916C107.935 17.6916 109.586 19.0912 109.586 21.7953V30.0769H106.933V22.4968C106.887 20.6082 106.142 19.7927 104.584 19.7927C102.815 19.7927 101.674 21.1905 101.674 22.9633V30.0786H99.0215V18.0199Z" fill="white"/>
<path d="M127.247 30.0786H125.385L124.944 28.1192C123.393 29.892 121.965 30.4743 119.945 30.4743C114.969 30.4778 111.984 26.5037 111.984 21.7503C111.984 16.997 114.969 13.0264 119.942 13.0264C123.562 13.0264 126.619 14.9616 127.061 18.7179H124.222C123.943 16.5253 122.036 15.4056 119.942 15.4056C116.381 15.4056 114.891 18.5538 114.891 21.7486C114.891 24.9434 116.381 28.0933 119.942 28.0933C122.919 28.14 124.548 26.3447 124.596 23.5214H120.175V21.308H127.242L127.247 30.0786Z" fill="white"/>
<path d="M132.111 24.7361C132.111 26.6263 133.135 28.3058 135.345 28.3058C136.88 28.3058 137.811 27.6285 138.275 26.2998H140.79C140.209 28.9348 137.975 30.4052 135.345 30.4052C131.577 30.4052 129.458 27.7685 129.458 24.0605C129.458 20.6307 131.699 17.6933 135.276 17.6933C139.068 17.6933 141.395 21.1214 140.953 24.7361H132.111ZM138.301 22.9875C138.208 21.308 137.067 19.7926 135.276 19.7926C133.436 19.7926 132.182 21.1905 132.111 22.9875H138.301Z" fill="white"/>
<path d="M151.099 22.0544C150.889 20.584 149.818 19.7926 148.353 19.7926C146.974 19.7926 145.049 20.5149 145.049 24.1762C145.049 26.1823 145.933 28.3058 148.236 28.3058C149.772 28.3058 150.842 27.2795 151.099 25.5533H153.752C153.262 28.679 151.339 30.4052 148.236 30.4052C144.466 30.4052 142.396 27.7218 142.396 24.1762C142.396 20.5374 144.375 17.6933 148.329 17.6933C151.121 17.6933 153.5 19.0929 153.752 22.0544H151.099Z" fill="white"/>
<path d="M155.992 13.4238H158.645V22.8942L163.439 18.0199H166.696L162.089 22.4501L167.138 30.0786H163.897L160.221 24.2229L158.638 25.7624V30.0821H155.992V13.4238Z" fill="white"/>
<path d="M167.853 24.0363C167.853 20.3507 170.063 17.6933 173.926 17.6933C177.789 17.6933 180 20.3507 180 24.0363C180 27.7218 177.789 30.4052 173.926 30.4052C170.063 30.4052 167.853 27.746 167.853 24.0363ZM177.347 24.0363C177.347 21.9628 176.299 19.7926 173.926 19.7926C171.552 19.7926 170.506 21.9611 170.506 24.0363C170.506 26.1114 171.552 28.3058 173.926 28.3058C176.299 28.3058 177.347 26.1356 177.347 24.0363Z" fill="white"/>
<path d="M47.5737 23.7388C47.5945 28.4548 46.2197 33.0711 43.6232 37.0038C41.0267 40.9366 37.3251 44.0092 32.9866 45.8331C28.648 47.657 23.8674 48.1502 19.2491 47.2505C14.6309 46.3507 10.3826 44.0984 7.04137 40.7783C3.70015 37.4582 1.41611 33.2195 0.478091 28.5981C-0.459925 23.9768 -0.00978858 19.1804 1.77158 14.8155C3.55294 10.4506 6.58553 6.71321 10.4858 4.07603C14.3861 1.43885 18.979 0.0202888 23.6836 -0.00026158C29.9919 -0.0278176 36.0528 2.45773 40.5331 6.90964C45.0133 11.3615 47.5459 17.4151 47.5737 23.7388Z" fill="#8DC63F"/>
<path d="M45.7896 23.7477C45.8093 28.1093 44.5383 32.3789 42.1374 36.0164C39.7365 39.6539 36.3134 42.496 32.3011 44.1834C28.2888 45.8707 23.8674 46.3275 19.5961 45.4958C15.3248 44.6642 11.3955 42.5816 8.30495 39.5114C5.21443 36.4412 3.10155 32.5212 2.2335 28.2472C1.36546 23.9732 1.78124 19.5372 3.42826 15.5001C5.07529 11.463 7.87958 8.00614 11.4865 5.5667C15.0934 3.12725 19.341 1.81478 23.6921 1.79526C29.5262 1.76954 35.1317 4.06778 39.2756 8.18453C43.4196 12.3013 45.7627 17.8994 45.7896 23.7477Z" fill="#F9E988"/>
<path d="M24.1919 3.22416C25.5904 2.97533 27.0216 2.97533 28.4201 3.22416C29.8321 3.44828 31.197 3.90668 32.4587 4.58053C33.7135 5.27167 34.7977 6.2099 35.8767 7.08938C36.9557 7.96886 38.0296 8.86907 39.0517 9.85395C40.0951 10.8235 41.0057 11.9274 41.7596 13.1369C42.5359 14.3368 43.1721 15.6221 43.6557 16.9676C44.5744 19.6734 44.8933 22.5883 44.4348 25.3684H44.2986C43.8384 22.6125 43.2144 19.9861 42.2302 17.4876C41.7682 16.2295 41.2247 15.003 40.603 13.8159C39.9544 12.6287 39.2397 11.479 38.4622 10.3723C37.6716 9.25348 36.7025 8.27277 35.594 7.46951C34.4771 6.67124 33.1929 6.15461 31.9502 5.66389C30.7074 5.17318 29.475 4.66519 28.1788 4.29197C26.8826 3.91876 25.5657 3.63884 24.1902 3.36757L24.1919 3.22416Z" fill="white"/>
<path d="M34.9457 15.9637C33.3496 15.5006 31.6949 14.844 30.0194 14.1805C29.9229 13.7589 29.5506 13.2336 28.7974 12.5926C27.7028 11.6406 25.6465 11.6648 23.8694 12.0863C21.9078 11.6233 19.9704 11.4591 18.1106 11.9136C2.89913 16.114 11.5244 26.3619 5.9397 36.6634C6.73431 38.3533 15.2993 48.2124 27.6925 45.5671C27.6925 45.5671 23.454 35.3572 33.0186 30.457C40.7769 26.4673 46.3823 19.0859 34.9457 15.9637Z" fill="#8BC53F"/>
<path d="M36.8245 22.6695C36.8256 22.8524 36.7725 23.0314 36.672 23.184C36.5715 23.3365 36.4282 23.4558 36.2601 23.5267C36.0919 23.5977 35.9066 23.617 35.7276 23.5823C35.5485 23.5477 35.3837 23.4606 35.254 23.332C35.1243 23.2035 35.0356 23.0392 34.999 22.8601C34.9624 22.681 34.9796 22.495 35.0485 22.3257C35.1173 22.1564 35.2347 22.0114 35.3858 21.909C35.5368 21.8066 35.7148 21.7513 35.8972 21.7503C36.1416 21.7494 36.3765 21.8456 36.5503 22.0179C36.7241 22.1902 36.8227 22.4245 36.8245 22.6695Z" fill="white"/>
<path d="M23.8694 12.0795C24.9777 12.1589 28.9853 13.4617 30.0195 14.1736C29.1576 11.6682 26.2567 11.3347 23.8694 12.0795Z" fill="#009345"/>
<path d="M24.9243 18.4155C24.9247 19.259 24.6755 20.0836 24.2082 20.7851C23.741 21.4866 23.0767 22.0335 22.2994 22.3565C21.5221 22.6795 20.6667 22.7642 19.8414 22.5999C19.0161 22.4355 18.258 22.0295 17.6628 21.4332C17.0677 20.8369 16.6624 20.0771 16.4981 19.2498C16.3338 18.4226 16.418 17.5651 16.7399 16.7858C17.0618 16.0064 17.6071 15.3403 18.3067 14.8717C19.0063 14.403 19.8289 14.1529 20.6703 14.1529C21.2289 14.1527 21.782 14.2628 22.2981 14.4769C22.8142 14.691 23.2832 15.0049 23.6782 15.4008C24.0733 15.7966 24.3867 16.2666 24.6005 16.7839C24.8143 17.3012 24.9243 17.8556 24.9243 18.4155Z" fill="white"/>
<path d="M23.6626 18.4535C23.6626 19.0468 23.4871 19.6267 23.1583 20.12C22.8295 20.6133 22.3622 20.9977 21.8154 21.2248C21.2686 21.4518 20.667 21.5112 20.0865 21.3955C19.5061 21.2797 18.9729 20.9941 18.5544 20.5746C18.1359 20.1551 17.8509 19.6206 17.7355 19.0387C17.62 18.4569 17.6793 17.8538 17.9058 17.3057C18.1322 16.7576 18.5158 16.2891 19.0078 15.9595C19.4999 15.6299 20.0785 15.454 20.6703 15.454C21.4639 15.454 22.225 15.77 22.7862 16.3325C23.3473 16.8951 23.6626 17.658 23.6626 18.4535Z" fill="#58595B"/>
<path d="M40.2703 24.5494C36.8229 26.984 32.9033 28.831 27.3427 28.831C24.74 28.831 24.2125 26.0665 22.4923 27.4177C21.6046 28.1192 18.4744 29.6881 15.9906 29.5688C13.5068 29.4496 9.48026 27.9896 8.35815 22.6747C7.91344 27.9896 7.68591 31.9049 5.69507 36.3922C9.65952 42.7559 19.1122 47.6647 27.6926 45.5498C26.7705 39.0963 32.3965 32.7758 35.5664 29.5412C36.7729 28.3161 39.0654 26.317 40.2703 24.546V24.5494Z" fill="#8BC53F"/>
<path d="M40.1358 24.7084C39.0654 25.6864 37.7916 26.4104 36.4954 27.0497C35.1834 27.6741 33.8156 28.1734 32.4103 28.5408C31.0037 28.9054 29.5369 29.1801 28.0511 29.0453C26.5653 28.9106 25.0467 28.4043 24.0625 27.2881L24.109 27.2345C25.3156 28.019 26.7083 28.2954 28.0942 28.3352C29.4989 28.378 30.9039 28.2621 32.2827 27.9896C33.6755 27.6973 35.038 27.275 36.3523 26.7283C37.6675 26.184 38.9688 25.5533 40.0892 24.6548L40.1358 24.7084Z" fill="#58595B"/>
</g>
<defs>
<clipPath id="clip0_380_1582">
<rect width="180" height="47.6959" fill="white"/>
</clipPath>
</defs>
</svg>
