<svg width="180" height="43" viewBox="0 0 180 43" fill="none" xmlns="http://www.w3.org/2000/svg">
<path d="M29.9817 21.702C29.4848 22.0097 28.905 22.0656 28.4633 21.8139C27.9111 21.4783 27.5798 20.7232 27.5798 19.6884V16.5282C27.5798 15.018 27.0001 13.9273 26.0062 13.6477C24.3222 13.1443 23.0522 15.2418 22.5829 16.0248L19.6013 20.8631V14.9062C19.5737 13.5358 19.132 12.7248 18.3038 12.4731C17.7516 12.3053 16.9234 12.3892 16.1228 13.6197L9.46942 24.4148C8.58598 22.7088 8.11666 20.8071 8.11666 18.8774C8.11666 12.3612 13.2792 7.07551 19.6013 7.07551C25.9234 7.07551 31.086 12.3612 31.086 18.8774V18.9054V18.9334C31.1412 20.1919 30.7547 21.1986 29.9817 21.702ZM33.6259 18.8774V18.8495V18.8215C33.5983 10.9069 27.3038 4.44666 19.6013 4.44666C11.8713 4.44666 5.57678 10.9069 5.57678 18.8774C5.57678 26.8199 11.8713 33.3082 19.6013 33.3082C23.1627 33.3082 26.5308 31.9378 29.1259 29.4488C29.6504 28.9454 29.678 28.1344 29.1811 27.603C28.7118 27.0716 27.9111 27.0437 27.3866 27.5191C27.3866 27.5191 27.3866 27.5191 27.359 27.5471C25.2608 29.5607 22.4449 30.7073 19.5461 30.7073C16.1504 30.7073 13.1136 29.1971 11.0154 26.792L17.0062 17.0596V21.5622C17.0062 23.7156 17.8344 24.4148 18.5246 24.6106C19.2148 24.8063 20.2639 24.6665 21.3958 22.8487L24.6811 17.4511C24.7915 17.2833 24.8743 17.1155 24.9848 17.0037V19.7444C24.9848 21.758 25.7854 23.38 27.1657 24.1631C28.4081 24.8902 29.9817 24.8063 31.2792 23.9953C32.8805 22.9326 33.7363 21.0868 33.6259 18.8774ZM53.1719 13.9553C53.5032 14.1511 53.8068 14.6265 53.8068 15.046C53.8068 15.7172 53.2547 16.2765 52.6197 16.2765C52.4541 16.2765 52.316 16.2206 52.178 16.1926C51.4326 15.6333 50.494 15.2697 49.5001 15.2697C47.1535 15.2697 45.5522 17.1994 45.5522 19.6046C45.5522 22.0097 47.1811 23.9114 49.5001 23.9114C50.6596 23.9114 51.7087 23.436 52.4817 22.6809C52.6749 22.541 52.9234 22.4571 53.1719 22.4571C53.8068 22.4571 54.3038 22.9605 54.3038 23.6038C54.3038 24.0233 54.0553 24.3868 53.7516 24.5826C52.6197 25.5614 51.1013 26.2047 49.5277 26.2047C45.9387 26.2047 43.0124 23.2122 43.0124 19.5206C43.0124 15.8291 45.9387 12.8366 49.5277 12.8366C50.8529 12.8087 52.1228 13.2282 53.1719 13.9553ZM59.7424 16.752C62.1995 16.752 64.2424 18.8495 64.2424 21.4503C64.2424 24.0233 62.1719 26.2326 59.7424 26.2326C57.1749 26.2326 55.0492 24.0512 55.0492 21.4503C55.0492 18.8495 57.1749 16.752 59.7424 16.752ZM59.7148 23.9114C60.7915 23.9114 61.7025 22.8766 61.7025 21.4783C61.7025 20.08 60.7915 19.1851 59.7148 19.1851C58.5553 19.1851 57.5891 20.052 57.5891 21.4783C57.5891 22.8487 58.5553 23.9114 59.7148 23.9114ZM65.7884 24.7784V18.1783C65.7884 17.4511 66.3406 16.8638 67.0584 16.8638C67.7486 16.8638 68.3283 17.4511 68.3283 18.1783V24.7784C68.3283 25.5055 67.7486 26.0928 67.0584 26.0928C66.3682 26.0928 65.7884 25.4775 65.7884 24.7784ZM65.5952 14.3748C65.5952 13.5078 66.2578 12.8366 67.0584 12.8366C67.8866 12.8366 68.5492 13.5358 68.5492 14.3748C68.5492 15.2138 67.8866 15.885 67.0584 15.885C66.2302 15.857 65.5952 15.1858 65.5952 14.3748ZM73.1872 21.1986V24.7784C73.1872 25.5055 72.6075 26.0928 71.9173 26.0928C71.2271 26.0928 70.6473 25.5055 70.6473 24.7784V17.8706C70.6473 17.3113 71.0891 16.8638 71.6412 16.8638C72.1933 16.8638 72.6075 17.3393 72.6075 17.8706C73.6289 16.8918 74.54 16.752 75.3958 16.752C77.9357 16.752 79.0676 18.6817 79.0676 20.891V24.7784C79.0676 25.5055 78.4878 26.0928 77.7976 26.0928C77.1074 26.0928 76.5277 25.5055 76.5277 24.7784V21.1986C76.5277 20.08 76.3897 19.1291 74.7884 19.1291C73.6565 19.1291 73.1872 20.08 73.1872 21.1986ZM87.2946 22.569C86.9909 22.569 86.7976 22.4292 86.632 22.2334L83.678 18.9893V24.7784C83.678 25.5055 83.0982 26.0928 82.4081 26.0928C81.7179 26.0928 81.1381 25.5055 81.1381 24.7784V13.3121C81.2209 13.1163 81.4142 12.9765 81.6075 12.9765C81.8283 12.9765 82.0216 13.1722 82.1596 13.3121L86.8805 18.6817C87.0185 18.8495 87.1841 18.9334 87.2946 18.9334C87.3774 18.9334 87.5706 18.8495 87.7087 18.6817L92.4295 13.3121C92.5676 13.1722 92.7332 12.9765 92.9817 12.9765C93.2025 12.9765 93.3958 13.1163 93.451 13.3121V24.7784C93.451 25.5055 92.8989 26.0928 92.1811 26.0928C91.4909 26.0928 90.9111 25.5055 90.9111 24.7784V18.9893L87.9571 22.2334C87.7363 22.4292 87.543 22.569 87.2946 22.569ZM99.497 23.9114C100.629 23.9114 101.595 22.8766 101.595 21.4783C101.595 20.08 100.601 19.1571 99.497 19.1571C98.3927 19.1571 97.4817 20.1079 97.4817 21.4783C97.4817 22.8207 98.3651 23.9114 99.497 23.9114ZM102.203 25.086L102.147 24.7784C101.65 25.7572 100.077 26.2047 99.0829 26.2047C96.7087 26.2047 94.9418 24.0233 94.9418 21.4224C94.9418 18.8495 96.7363 16.724 99.2209 16.724C99.6351 16.724 101.071 16.8359 102.175 18.1503L102.23 17.8427C102.23 17.2833 102.644 16.8359 103.196 16.8359C103.749 16.8359 104.19 17.3113 104.19 17.8427V25.058C104.19 25.6174 103.749 26.0648 103.196 26.0648C102.617 26.0928 102.203 25.6174 102.203 25.086ZM111.175 19.1291H110.899C109.298 19.213 108.994 20.1359 108.994 21.1986V24.7784C108.994 25.5055 108.414 26.0928 107.724 26.0928C107.034 26.0928 106.454 25.5055 106.454 24.7784V17.8706C106.454 17.3113 106.896 16.8638 107.448 16.8638C108 16.8638 108.414 17.3393 108.414 17.8706C109.353 16.9757 110.126 16.7799 110.899 16.752H111.147C111.755 16.752 112.307 17.2833 112.307 17.9545C112.334 18.5698 111.782 19.1291 111.175 19.1291ZM120.976 24.1631C121.086 24.3589 121.169 24.5546 121.169 24.7784C121.169 25.4496 120.561 26.0648 119.899 26.0648C119.457 26.0648 119.071 25.7292 118.767 25.3377L115.841 21.8978V24.7504C115.841 25.4775 115.261 26.0648 114.571 26.0648C113.88 26.0648 113.301 25.4775 113.301 24.7504V14.2629C113.301 13.5358 113.853 12.9485 114.571 12.9485C115.288 12.9485 115.841 13.5358 115.841 14.2629V20.8071L118.767 17.535C119.071 17.1994 119.43 16.8359 119.871 16.8359C120.506 16.8359 121.086 17.4232 121.086 18.0944C121.086 18.2901 121.031 18.5139 120.92 18.6817L118.601 21.2546L120.976 24.1631ZM125.945 19.1571C125.255 19.1571 124.123 19.5207 124.123 20.6114H127.795C127.767 19.5207 126.607 19.1571 125.945 19.1571ZM129.258 22.2614H124.123C124.123 23.7995 125.586 24.0512 126.221 24.0512C126.69 24.0512 127.353 23.9673 127.877 23.7156C128.043 23.6038 128.291 23.5199 128.54 23.5199C129.092 23.5199 129.561 23.9953 129.561 24.5826C129.561 24.9741 129.313 25.3097 129.009 25.5055C128.236 26.0928 127.215 26.2326 126.249 26.2326C123.681 26.2326 121.555 24.8343 121.555 21.5622C121.555 18.9893 122.853 16.752 125.89 16.752C128.347 16.752 130.196 18.374 130.252 21.2546C130.252 21.7859 129.81 22.2614 129.258 22.2614ZM136.325 26.2047H135.635C133.703 26.2047 132.571 25.3377 132.571 22.2893V19.1291H131.908C131.301 19.1291 130.776 18.5698 130.776 17.9545C130.776 17.2833 131.328 16.752 131.908 16.752H132.571V14.3189C132.571 13.5917 133.123 13.0044 133.841 13.0044C134.531 13.0044 135.111 13.5917 135.111 14.3189V16.752H136.16C136.767 16.752 137.291 17.2833 137.291 17.9545C137.291 18.5698 136.739 19.1291 136.16 19.1291H135.111V21.7859C135.111 23.5478 135.193 23.9114 135.966 23.9114H136.325C136.933 23.9114 137.457 24.4148 137.457 25.058C137.457 25.6733 136.933 26.2047 136.325 26.2047ZM148.611 13.9553C148.942 14.1511 149.245 14.6265 149.245 15.046C149.245 15.7172 148.693 16.2765 148.058 16.2765C147.893 16.2765 147.755 16.2206 147.617 16.1926C146.871 15.6333 145.933 15.2697 144.939 15.2697C142.592 15.2697 140.991 17.1994 140.991 19.6046C140.991 22.0097 142.62 23.9114 144.939 23.9114C146.098 23.9114 147.147 23.436 147.92 22.6809C148.114 22.541 148.362 22.4571 148.611 22.4571C149.245 22.4571 149.742 22.9605 149.742 23.6038C149.742 24.0233 149.494 24.3868 149.19 24.5826C148.058 25.5614 146.54 26.2047 144.966 26.2047C141.377 26.2047 138.451 23.2122 138.451 19.5206C138.451 15.8291 141.377 12.8366 144.966 12.8366C146.291 12.8087 147.589 13.2282 148.611 13.9553ZM155.043 23.9114C156.175 23.9114 157.141 22.8766 157.141 21.4783C157.141 20.08 156.147 19.1571 155.043 19.1571C153.911 19.1571 153.028 20.1079 153.028 21.4783C153.028 22.8207 153.939 23.9114 155.043 23.9114ZM157.749 25.086L157.693 24.7784C157.196 25.7572 155.623 26.2047 154.629 26.2047C152.255 26.2047 150.488 24.0233 150.488 21.4224C150.488 18.8495 152.282 16.724 154.767 16.724C155.181 16.724 156.617 16.8359 157.721 18.1503L157.776 17.8427C157.776 17.2833 158.19 16.8359 158.742 16.8359C159.295 16.8359 159.736 17.3113 159.736 17.8427V25.058C159.736 25.6174 159.295 26.0648 158.742 26.0648C158.163 26.0928 157.749 25.6174 157.749 25.086ZM166.666 23.9114C167.798 23.9114 168.681 22.8207 168.681 21.4783C168.681 20.08 167.77 19.1571 166.666 19.1571C165.534 19.1571 164.568 20.08 164.568 21.4783C164.568 22.8766 165.534 23.9114 166.666 23.9114ZM164.568 25.4496V28.7217C164.568 29.4488 163.988 30.0361 163.298 30.0361C162.607 30.0361 162.028 29.4488 162.028 28.7217V17.8706C162.028 17.3113 162.469 16.8638 163.022 16.8638C163.574 16.8638 163.988 17.3393 163.988 17.9825C164.926 17.0037 166.086 16.752 166.969 16.752C169.426 16.752 171.249 18.8495 171.249 21.4503C171.249 24.0233 169.509 26.2326 167.107 26.2326C166.362 26.2047 165.258 25.9809 164.568 25.4496Z" fill="white"/>
</svg>
