<svg width="180" height="38" viewBox="0 0 180 38" fill="none" xmlns="http://www.w3.org/2000/svg">
<g clip-path="url(#clip0_380_1478)">
<path d="M19.336 2.54199C10.2509 2.54199 2.86633 9.87741 2.86633 18.9559C2.86633 28.0344 10.2267 35.3698 19.336 35.3698C28.4453 35.3698 35.8056 28.0344 35.8056 18.9801C35.6356 9.8532 28.3238 2.54199 19.336 2.54199ZM20.842 21.6189C21.3279 22.0305 21.5951 22.6357 21.5951 23.2652C21.5708 24.4998 20.5748 25.4682 19.3603 25.4924C18.7287 25.4682 18.1457 25.2019 17.7084 24.7419C16.0809 23.3378 13.6518 23.3378 12.0242 24.7419L11.8785 24.8872C11.4412 25.1777 10.9797 25.4924 10.3724 25.4924C9.8137 25.5166 9.255 25.2987 8.86633 24.8872L8.57484 24.5967V24.4514L8.42908 24.3062C8.42908 24.1609 8.28334 24.0156 8.28334 23.8462C8.28334 23.6767 8.13759 23.3862 8.13759 23.241C8.13759 22.9504 8.13759 22.8052 8.28334 22.6357C8.28334 22.4905 8.42908 22.3452 8.42908 22.1757C8.42908 22.1031 8.50196 22.0305 8.57484 22.0305V21.8852C8.86633 21.8852 8.86633 21.8852 8.86633 21.74L9.01208 21.5947C9.66795 20.8442 10.0323 19.9001 10.0566 18.9075C10.1052 17.9149 9.71653 16.9223 9.01208 16.2203C8.62342 15.6876 8.42909 15.0824 8.40479 14.4288C8.42909 13.1941 9.42504 12.2257 10.6396 12.2015C11.8299 12.2015 12.7287 13.2425 12.7287 14.4288C12.7044 15.0582 12.4372 15.6392 11.9756 16.075C10.5667 17.697 10.5667 20.1179 11.9756 21.74L12.1214 21.8852C12.8744 22.5389 13.8218 22.902 14.8177 22.9262C15.8137 22.9747 16.8097 22.5873 17.5141 21.8852C17.5141 21.74 17.6599 21.74 17.8056 21.5947C18.4615 20.8442 18.8258 19.9001 18.8501 18.9075C18.8987 17.9149 18.5101 16.9223 17.8056 16.2203C17.3198 15.7603 17.0526 15.1066 17.0526 14.4288C17.0526 13.1941 18.0485 12.2015 19.2874 12.2015C20.5263 12.2015 21.5222 13.1941 21.5222 14.4288C21.4979 15.0582 21.2307 15.6392 20.7692 16.075C20.089 16.8739 19.7246 17.8665 19.7246 18.9075C19.7489 19.9485 20.1376 20.9169 20.842 21.6189ZM23.6841 21.0379C22.4453 21.0379 21.4493 20.0453 21.4493 18.8106C21.4493 17.576 22.4453 16.5834 23.6841 16.5834C24.923 16.5834 25.919 17.576 25.919 18.8106C25.9433 20.0211 24.9716 21.0137 23.757 21.0379C23.7327 21.0379 23.7084 21.0379 23.6841 21.0379ZM29.5141 21.6189C29.6599 21.9094 29.8056 21.9094 29.8056 21.9094V22.0547L29.9514 22.2C29.9514 22.3452 30.0971 22.4905 30.0971 22.6599C30.0971 22.8294 30.2429 23.1199 30.2429 23.2652C30.2429 23.5557 30.2428 23.7251 30.0971 23.8704C30.0971 24.0156 29.9514 24.1609 29.9514 24.3304C29.9514 24.403 29.8785 24.4756 29.8056 24.4756V24.6209L29.5141 24.9114C29.0526 25.2019 28.6153 25.5166 28.008 25.5166C27.4493 25.5408 26.8906 25.323 26.502 24.9114L26.2105 24.6209V24.4514L26.0647 24.3062C26.0647 24.1609 25.919 24.0156 25.919 23.8462C25.919 23.6767 25.7732 23.3862 25.7732 23.241C25.7732 22.9504 25.7732 22.8052 25.919 22.6357C25.919 22.4905 26.0647 22.3452 26.0647 22.1757C26.0647 22.1031 26.1376 22.0305 26.2105 22.0305V21.8852L26.3562 21.74L26.502 21.5947C27.1578 20.8442 27.5222 19.9001 27.5465 18.9075C27.5951 17.9149 27.2064 16.9223 26.502 16.2203C26.0404 15.7845 25.7732 15.2035 25.7489 14.574C25.7489 13.3393 26.7449 12.3468 27.9837 12.3468C29.2226 12.3468 30.2186 13.3393 30.2186 14.574C30.1943 15.2035 29.9271 15.7845 29.4655 16.2203C28.7854 17.0192 28.421 18.0117 28.421 19.0527C28.4696 19.9727 28.9068 20.8684 29.5141 21.6189Z" fill="#FFDB6A"/>
<path d="M50.0161 31.1816V6.56073H56.3076V26.2429H67.3602V31.1816H50.0161Z" fill="#FFDB6A"/>
<path d="M177.061 31.1816L164.793 18.9317L177.061 6.70598H168.073L160.3 14.4772V6.56073H154.008V31.1816H160.3V23.4104L168.073 31.1816H177.061Z" fill="#FFDB6A"/>
<path d="M105.376 26.3882L103.87 31.1816H97.2874L105.814 6.56073H114.194L122.745 31.1816H116.162L114.656 26.3882L113.15 21.7642L110.016 11.4752L106.712 21.7642L105.376 26.3882Z" fill="#FFDB6A"/>
<path d="M132.899 15.0582V31.1816H126.923V6.56073H134.696L143.976 23.4104V6.56073H149.976V31.1816H142.178L132.899 15.0582Z" fill="#FFDB6A"/>
<path d="M92.6478 21.619C92.332 20.9169 91.9433 20.2633 91.4575 19.6823C90.9474 19.1739 90.3401 18.7623 89.6599 18.496C89.0283 18.2297 88.3725 18.036 87.7166 17.8908C88.3239 17.7697 88.9312 17.5518 89.5142 17.2855C90.0729 17.0192 90.583 16.6803 91.0202 16.2445C91.4818 15.8088 91.7976 15.2277 91.919 14.5983C92.2105 13.9931 92.2105 13.2668 92.2105 12.5163C92.1862 11.7658 92.0891 11.0153 91.919 10.289C91.6761 9.53856 91.1903 8.8607 90.583 8.3523C89.9271 7.69865 89.1012 7.23867 88.1781 7.02079C86.9635 6.70607 85.7004 6.53661 84.4372 6.56081H71.417V31.1575H85.336C87.8866 31.1575 89.6842 30.5522 91.0202 29.366C92.3563 28.1797 92.9636 26.5335 92.9636 24.4515C93.085 23.5073 92.9878 22.539 92.6478 21.619ZM77.8299 10.5796H84.4129C84.9231 10.6038 85.4332 10.7006 85.919 10.8701C86.3077 10.9669 86.6721 11.1848 86.9635 11.4753C87.2065 11.7416 87.4251 12.0321 87.5708 12.371C87.7166 12.71 87.7652 13.0489 87.7166 13.412C87.7166 14.1383 87.4494 14.8162 86.9635 15.3488C86.502 15.954 85.6275 16.0993 84.4129 16.0993H77.8299V10.5796ZM87.7166 25.9525C87.255 26.5577 86.3806 26.703 85.166 26.703H77.8299V21.1832H85.166C85.6761 21.2074 86.1862 21.3043 86.672 21.4738C87.0607 21.5706 87.4251 21.7885 87.7166 22.079C87.9595 22.3453 88.1781 22.6358 88.3239 22.9747C88.4696 23.3137 88.5182 23.6526 88.4696 24.0157C88.4696 24.742 88.3239 25.4925 87.7166 25.9525Z" fill="#FFDB6A"/>
</g>
<defs>
<clipPath id="clip0_380_1478">
<rect width="180" height="37.5244" fill="white"/>
</clipPath>
</defs>
</svg>
