<svg width="180" height="30" viewBox="0 0 180 30" fill="none" xmlns="http://www.w3.org/2000/svg">
<g clip-path="url(#clip0_380_1562)">
<path d="M34.2706 19.1517L26.7686 6.4788C25.1123 3.84455 21.1177 3.79709 19.5345 6.59746L11.6427 19.7924C10.1813 22.2131 11.9837 25.2508 14.931 25.2508H30.7144C33.686 25.2508 35.9025 22.1182 34.2706 19.1517Z" fill="#00B897"/>
<path d="M23.4317 20.1485L22.9689 19.3653C22.5305 18.6296 21.5806 17.0633 21.5806 17.0633L15.2233 6.31272C13.9568 4.43789 11.3749 3.93952 9.45067 5.17358C8.84174 5.5533 8.35459 6.09913 8.03795 6.73989L0.657706 19.1992C-0.487084 21.1215 0.194919 23.5896 2.19221 24.705C2.8255 25.061 3.53186 25.2508 4.26258 25.2508H30.6415C26.5738 25.2746 25.2829 23.2099 23.4317 20.1485Z" fill="#76FCB2"/>
<path d="M23.4316 20.1484L22.9689 19.3652C22.5304 18.6295 21.5805 17.0632 21.5805 17.0632L17.4885 10.0386L11.594 19.8161C10.1326 22.2368 11.935 25.2745 14.8823 25.2745H30.6414C26.5494 25.2508 25.2828 23.2098 23.4316 20.1484Z" fill="url(#paint0_linear_380_1562)"/>
<path d="M175.835 24.2541C174.934 24.2778 174.057 24.0642 173.302 23.6371C172.644 23.2336 172.254 22.5216 172.303 21.7622V9.4928H173.984C174.593 9.4928 175.104 9.99117 175.104 10.5845V21.3825C175.128 21.7385 175.275 22.0707 175.543 22.3318C175.81 22.5928 176.176 22.7352 176.541 22.7352H176.858C176.98 22.7352 177.101 22.8302 177.101 22.9726V24.3015L175.835 24.2541Z" fill="#00B897"/>
<path d="M139.762 24.2541C138.033 24.2541 136.62 23.8031 135.548 22.9013C135.037 22.4979 134.647 21.9758 134.403 21.3825C134.16 20.8129 134.062 20.006 134.062 18.9144C134.062 17.8227 134.184 16.9921 134.403 16.4462C134.647 15.8767 135.037 15.3783 135.524 14.9749C136.596 14.073 138.008 13.6221 139.738 13.6221C141.467 13.6221 142.88 14.073 143.951 14.9749C144.439 15.3546 144.828 15.8767 145.072 16.4462C145.34 17.2531 145.462 18.0837 145.413 18.9381C145.413 20.0298 145.291 20.8604 145.072 21.4062C144.828 21.9995 144.439 22.5216 143.927 22.9251C142.928 23.8031 141.491 24.2541 139.762 24.2541ZM139.762 15.1884C137.862 15.1884 136.912 16.4462 136.912 18.9618C136.912 21.4774 137.862 22.7589 139.762 22.7589C141.662 22.7589 142.612 21.5011 142.612 18.9856C142.612 16.47 141.637 15.1884 139.762 15.1884Z" fill="#00B897"/>
<path d="M151.721 24.2541C150.284 24.2778 148.871 23.8744 147.654 23.0912C147.459 22.9251 147.239 22.7827 147.02 22.664C146.947 22.6166 146.898 22.5454 146.898 22.4742V9.4928H148.603C149.212 9.4928 149.724 9.99117 149.724 10.5845V14.3816L150.235 14.0968C150.844 13.7883 151.648 13.6459 152.695 13.6459C154.522 13.6459 155.911 14.1917 156.812 15.2122C157.616 16.1377 158.03 17.3718 158.03 18.8907C158.03 20.4095 157.567 21.6436 156.641 22.5454C155.594 23.7082 153.913 24.2541 151.721 24.2541ZM151.989 15.1885C151.356 15.1885 150.625 15.4258 149.821 15.9004L149.7 15.9479V22.047L149.821 22.1419C150.479 22.5454 151.21 22.7352 151.989 22.7352C152.963 22.759 153.889 22.2843 154.376 21.4774C154.863 20.718 155.131 19.8399 155.107 18.9381C155.107 16.4463 154.059 15.1885 151.989 15.1885Z" fill="#00B897"/>
<path d="M164.704 24.2303C161.537 24.2303 159.54 22.2131 159.54 18.9144C159.54 15.6156 161.488 13.6221 164.655 13.6221C165.751 13.5984 166.847 13.9069 167.748 14.5239L167.919 14.6426V13.8357H170.135C170.257 13.8357 170.355 13.9306 170.355 14.0493V24.0405H167.87V23.1386L167.7 23.281C167.018 23.8981 165.922 24.2303 164.704 24.2303ZM165.264 15.4258C163.267 15.4258 162.097 16.9209 162.097 18.9144C162.097 20.9078 163.291 22.4504 165.264 22.4504C165.897 22.4504 166.993 22.4029 167.87 21.5486L167.894 21.5249V16.3988L167.87 16.375C167.286 15.7105 166.384 15.4258 165.264 15.4258Z" fill="#00B897"/>
<path d="M62.184 24.1354V9.4928H74.6792V10.4183C74.6792 11.154 74.0703 11.7473 73.3152 11.7473H65.2773V15.6631H73.3152V17.9176H65.2773V21.8572H73.3152C74.0703 21.8572 74.6792 22.4505 74.6792 23.1861V24.1117L62.184 24.1354Z" fill="white"/>
<path d="M92.6062 9.46906H89.659C89.1231 9.46906 88.6116 9.70638 88.2706 10.1098L84.7388 14.4765L81.1826 10.1336C80.8416 9.73011 80.3301 9.49279 79.7943 9.49279H76.847L82.8146 16.8022L76.847 24.1117H79.7943C80.3301 24.1117 80.8416 23.8744 81.1826 23.4709L84.7388 19.1517L88.3193 23.5184C88.6603 23.9218 89.1718 24.1591 89.7077 24.1591H92.6549L86.663 16.8497L92.6062 9.46906Z" fill="white"/>
<path d="M52.3923 22.5691L56.4843 15.5919V24.0879H59.6021V9.44528H57.6778C57.0689 9.44528 56.5087 9.7538 56.2164 10.2759L51.3206 18.9855L46.4248 10.2759C46.1325 9.7538 45.5723 9.42155 44.9633 9.44528H43.0148V24.0879H46.1325V15.5919L50.2245 22.5691H52.3923Z" fill="white"/>
<path d="M100.742 24.3016C96.479 24.3965 92.9472 21.0978 92.8741 16.9447C92.8741 16.8972 92.8741 16.8735 92.8741 16.826C92.8741 14.524 93.6049 12.6017 94.9445 11.2965C96.2842 9.9912 98.2571 9.30298 100.595 9.30298C103.348 9.30298 105.491 10.2285 107.05 12.0322L106.076 12.839C105.467 13.3374 104.566 13.3611 103.908 12.8865C102.982 12.222 101.862 11.8898 100.717 11.9372C97.6482 11.9372 95.8457 13.7409 95.8457 16.7785C95.8457 19.8162 97.7212 21.7385 100.717 21.7385C101.862 21.7623 102.982 21.43 103.908 20.7892C104.566 20.3146 105.442 20.3383 106.076 20.8367L107.05 21.6436C105.516 23.3998 103.421 24.3016 100.742 24.3016Z" fill="white"/>
<path d="M119.935 24.2777C115.088 24.2777 112.092 21.4062 112.092 16.8022C112.092 12.1982 115.088 9.3266 119.886 9.3266C122.2 9.3266 124.125 9.96737 125.635 11.2964L124.904 12.0795C124.392 12.6253 123.589 12.7677 122.907 12.4355C121.957 11.9846 120.934 11.7473 119.886 11.7473C116.769 11.7473 114.844 13.6933 114.844 16.8022C114.844 19.9111 116.866 21.8808 120.106 21.8808C121.664 21.8808 122.882 21.596 123.759 20.979L123.808 20.9553V17.9413H120.374V16.9683C120.374 16.2326 120.982 15.6393 121.738 15.6393H125.976C126.097 15.6393 126.219 15.7342 126.219 15.8766V22.3792C124.733 23.637 122.614 24.2777 119.935 24.2777Z" fill="#00B897"/>
<path d="M131.773 24.2541C130.871 24.2778 129.995 24.0642 129.24 23.6371C128.582 23.2336 128.192 22.5216 128.217 21.7622V9.4928H129.897C130.53 9.4928 131.018 9.99117 131.018 10.5845V21.3825C131.042 21.7385 131.188 22.0707 131.456 22.3318C131.724 22.5928 132.089 22.7352 132.455 22.7352H132.771C132.893 22.7352 133.015 22.8302 133.015 22.9726V24.3015L131.773 24.2541Z" fill="#00B897"/>
</g>
<defs>
<linearGradient id="paint0_linear_380_1562" x1="9.51582" y1="15.3749" x2="27.6359" y2="22.2456" gradientUnits="userSpaceOnUse">
<stop stop-color="#53E57A" stop-opacity="0"/>
<stop offset="1" stop-color="#00A977"/>
</linearGradient>
<clipPath id="clip0_380_1562">
<rect width="180" height="29.9023" fill="white"/>
</clipPath>
</defs>
</svg>
