<svg width="180" height="29" viewBox="0 0 180 29" fill="none" xmlns="http://www.w3.org/2000/svg">
<g clip-path="url(#clip0_380_1464)">
<path d="M14.2275 28.0566C12.0718 28.0566 10.0239 27.2185 8.51488 25.6517L2.22746 19.2752C-0.934218 16.0687 -0.934218 10.8582 2.22746 7.68818L5.35321 4.51814C6.89812 2.95133 8.91009 2.11328 11.0658 2.11328H17.3532C19.5089 2.11328 21.5568 2.95133 23.0658 4.51814L26.1915 7.68818C29.3532 10.8947 29.3532 16.1052 26.1915 19.2752L19.9041 25.6517C18.4311 27.2185 16.4191 28.0566 14.2275 28.0566ZM11.1017 4.66389C9.62866 4.66389 8.22746 5.24688 7.18554 6.30356L4.02387 9.4736C1.86818 11.6598 1.86818 15.2307 4.02387 17.4169L10.3113 23.7934C11.3532 24.8501 12.7544 25.4331 14.2275 25.4331C15.7005 25.4331 17.1017 24.8501 18.1436 23.7934L24.4311 17.4169C26.5867 15.2307 26.5867 11.6598 24.4311 9.4736L21.3053 6.30356C20.2634 5.24688 18.8622 4.66389 17.3891 4.66389H11.1017Z" fill="white"/>
<path d="M14.2275 24.2309C12.9701 24.2309 11.7485 23.7208 10.8503 22.8098L5.17366 17.0528C3.3054 15.158 3.3054 12.0973 5.17366 10.2026L8.01198 7.32401C8.91019 6.41308 10.0958 5.90295 11.3892 5.90295H17.0659C18.3234 5.90295 19.5449 6.41308 20.4431 7.32401L23.2814 10.2026C25.1497 12.0973 25.1497 15.158 23.2814 17.0528L17.6048 22.8098C16.7066 23.7208 15.521 24.2309 14.2275 24.2309ZM11.3892 8.49C10.8144 8.49 10.2395 8.70863 9.80839 9.14587L6.97007 12.0244C6.10779 12.8989 6.10779 14.32 6.97007 15.1945L12.6467 20.9515C13.4731 21.7896 14.9461 21.7896 15.7725 20.9515L21.4491 15.1945C22.3114 14.32 22.3114 12.8989 21.4491 12.0244L18.6108 9.14587C18.1796 8.70863 17.6407 8.49 17.0299 8.49H11.3892Z" fill="white"/>
<path d="M14.2276 20.4414L7.72461 13.8462L11.8204 9.69238H16.6707L20.7665 13.8462L14.2276 20.4414Z" fill="white"/>
<path d="M37.8323 6.74084H41.8203L46.0957 18.4372L50.3712 6.74084H54.2514L47.6407 23.4291H44.4431L37.8323 6.74084Z" fill="white"/>
<path d="M54.2515 6.74084H58.2036L62.479 18.4372L66.7545 6.74084H70.6347L64.0239 23.4291H60.8263L54.2515 6.74084Z" fill="white"/>
<path d="M70.9941 20.9149L73.1139 18.3279C74.587 19.5668 76.1319 20.3319 78.0001 20.3319C79.4732 20.3319 80.3714 19.7489 80.3714 18.7651V18.7287C80.3714 17.8178 79.7965 17.3441 77.066 16.6153C73.7606 15.7773 71.6408 14.8299 71.6408 11.5506V11.5141C71.6408 8.48983 74.0121 6.52222 77.3534 6.52222C79.7247 6.52222 81.7726 7.2874 83.4253 8.63558L81.557 11.3684C80.1199 10.3481 78.6828 9.7287 77.3175 9.7287C75.9522 9.7287 75.1977 10.3846 75.1977 11.1862V11.2226C75.1977 12.3157 75.8804 12.6801 78.7187 13.4089C82.0241 14.2834 83.8923 15.4858 83.8923 18.4008V18.4372C83.8923 21.7166 81.4133 23.5749 77.8923 23.5749C75.4492 23.5749 72.9702 22.7004 70.9941 20.9149Z" fill="white"/>
<path d="M93.1616 6.74084H105.629V10.0566H96.7544V13.591H104.551V16.9068H96.7544V23.3198H93.1616V6.74084Z" fill="white"/>
<path d="M107.712 6.74084H111.449V9.94732H107.712V6.74084ZM107.784 11.3684H111.341V23.3562H107.784V11.3684Z" fill="white"/>
<path d="M114.216 10.6397H117.772V12.4251C118.599 11.3685 119.641 10.3846 121.437 10.3846C124.132 10.3846 125.677 12.1701 125.677 15.085V23.3199H122.156V16.251C122.156 14.5385 121.365 13.664 120 13.664C118.635 13.664 117.772 14.5385 117.772 16.251V23.3199H114.216V10.6397Z" fill="white"/>
<path d="M127.581 19.7125V19.676C127.581 16.9068 129.665 15.6315 132.611 15.6315C133.868 15.6315 134.766 15.8501 135.665 16.1416V15.923C135.665 14.4291 134.766 13.591 132.97 13.591C131.605 13.591 130.671 13.8461 129.521 14.2833L128.623 11.5505C129.988 10.9311 131.353 10.5303 133.473 10.5303C135.413 10.5303 136.814 11.0404 137.713 11.9513C138.647 12.8987 139.078 14.2833 139.078 15.9959V23.3562H135.629V21.9716C134.766 22.9554 133.581 23.5748 131.856 23.5748C129.521 23.5748 127.581 22.1902 127.581 19.7125ZM135.736 18.8744V18.2185C135.126 17.927 134.335 17.7448 133.473 17.7448C131.964 17.7448 131.03 18.3643 131.03 19.4938V19.5303C131.03 20.5141 131.82 21.0606 132.97 21.0606C134.587 21.0971 135.736 20.1861 135.736 18.8744Z" fill="white"/>
<path d="M141.7 10.6397H145.257V12.4251C146.084 11.3685 147.126 10.3846 148.922 10.3846C151.617 10.3846 153.162 12.1701 153.162 15.085V23.3199H149.605V16.251C149.605 14.5385 148.814 13.664 147.449 13.664C146.084 13.664 145.221 14.5385 145.221 16.251V23.3199H141.665V10.6397H141.7Z" fill="white"/>
<path d="M155.174 17.0527V17.0163C155.174 13.3726 157.904 10.4211 161.748 10.4211C164.12 10.4211 165.593 11.2228 166.742 12.5709L164.587 14.9394C163.796 14.1013 163.006 13.5547 161.748 13.5547C159.988 13.5547 158.695 15.158 158.695 17.0163V17.0527C158.695 18.9839 159.916 20.5507 161.892 20.5507C163.078 20.5507 163.904 20.0406 164.766 19.2025L166.85 21.3523C165.629 22.7005 164.227 23.6843 161.748 23.6843C157.94 23.6479 155.174 20.6964 155.174 17.0527Z" fill="white"/>
<path d="M167.712 17.0527V17.0163C167.712 13.3726 170.263 10.4211 173.892 10.4211C178.06 10.4211 180 13.7005 180 17.3078C180 17.5993 179.964 17.9272 179.964 18.2551H171.233C171.593 19.8948 172.706 20.7329 174.287 20.7329C175.473 20.7329 176.335 20.3685 177.341 19.4211L179.389 21.243C178.203 22.7005 176.551 23.6114 174.287 23.6114C170.479 23.6479 167.712 20.9515 167.712 17.0527ZM176.515 15.996C176.299 14.3928 175.365 13.2997 173.856 13.2997C172.383 13.2997 171.413 14.3564 171.162 15.996H176.515Z" fill="white"/>
</g>
<defs>
<clipPath id="clip0_380_1464">
<rect width="180" height="28.4211" fill="white"/>
</clipPath>
</defs>
</svg>
