<svg width="180" height="53" viewBox="0 0 180 53" fill="none" xmlns="http://www.w3.org/2000/svg">
<g clip-path="url(#clip0_380_1577)">
<path d="M93.519 33.6125C93.5443 32.4193 94.5316 31.48 95.7215 31.5053C96.9114 31.5307 97.8481 32.5208 97.8228 33.714C97.7974 34.8818 96.8354 35.8211 95.6709 35.8211C94.481 35.7957 93.519 34.8057 93.519 33.6125ZM119.975 16.4254V20.792H113.418C111.215 20.792 109.671 21.2997 108.835 22.3152C108.025 23.2799 107.62 24.727 107.62 26.6818C107.62 28.8651 108.278 30.4645 109.62 31.4799C110.152 31.8608 110.759 32.14 111.392 32.2923C112.278 32.47 113.165 32.5462 114.076 32.5208H119.975V36.8874H112.481C110.861 36.9382 109.24 36.7351 107.696 36.2527C106.481 35.8211 105.418 35.0595 104.582 34.0694C102.81 31.9877 101.899 29.3221 102 26.5803C102 22.9245 103.013 20.2081 105.063 18.431C105.899 17.6948 106.911 17.1617 108 16.8824C109.468 16.5524 110.962 16.4 112.456 16.4254H119.975ZM133.342 16.1462C137.013 16.1462 139.747 17.2378 141.468 19.4211C143.139 21.5536 143.975 24.2193 143.873 26.9357C144 29.8044 142.886 32.597 140.835 34.5772C138.987 36.3035 136.456 37.192 133.24 37.192C129.924 37.192 127.316 36.2019 125.418 34.2471C123.671 32.47 122.81 29.906 122.81 26.5041C122.734 23.8892 123.62 21.3505 125.316 19.3703C127.19 17.2378 129.848 16.1716 133.342 16.1462ZM133.392 20.4112C130.101 20.4112 128.456 22.5183 128.456 26.7072C128.38 28.0527 128.658 29.3982 129.266 30.6168C130.127 32.1146 131.721 32.9778 133.443 32.8762C136.684 32.8762 138.304 30.7945 138.304 26.6056C138.304 22.5437 136.658 20.4874 133.392 20.4112ZM147.949 16.4254H168.076C169.468 16.3747 170.886 16.527 172.253 16.8316C173.165 17.0855 174 17.5932 174.658 18.3041C175.924 19.8527 176.582 21.8329 176.456 23.8638V36.8874H170.987V24.7524C171.013 24.0669 170.962 23.3815 170.861 22.696C170.785 22.2898 170.582 21.9344 170.278 21.6552C169.57 21.0459 168.633 20.7158 167.696 20.792H164.785V36.8874H159.316V20.792H153.418V36.8874H147.949V16.4254ZM62.2531 26.6564L54.3544 16.1716H60.6329L65.3671 23.153L70.481 16.1716H76.6835L68.5316 26.6564L76.6835 37.3444H70.6582L65.3671 30.0837L60.1772 37.3444H54.0759L62.2531 26.6564ZM84.6835 19.9542H75.443L78.6582 16.1716H97.7974V19.9542H89.8228V37.3697H84.7088L84.6835 19.9542Z" fill="#FFBE40"/>
<path d="M93.519 33.6124C93.5444 32.4193 94.5317 31.4799 95.7216 31.5053C96.9115 31.5307 97.8482 32.5208 97.8228 33.714C97.7975 34.8818 96.8355 35.8211 95.6709 35.8211C94.4811 35.7957 93.519 34.8056 93.519 33.6124Z" fill="#FFBE40"/>
<path d="M25.6455 46.1029C14.6329 46.179 5.64553 37.2936 5.56958 26.2756C5.49363 15.2322 14.3544 6.21984 25.3417 6.14368C36.3544 6.06751 45.3417 14.9276 45.4177 25.971V26.1233C45.443 37.1159 36.6076 46.0521 25.6455 46.1029ZM25.6455 9.11396C16.2784 9.06318 8.63287 16.6031 8.58223 26.0217C8.5316 35.4149 16.0506 43.0818 25.443 43.1326C34.8101 43.1834 42.4557 35.6434 42.5063 26.2502V26.1233C42.5063 16.7555 34.9873 9.16473 25.6455 9.11396ZM26.3544 23.3815L30.1772 18.6849C30.5822 18.2025 30.5063 17.4663 30.0253 17.0601C29.8227 16.9078 29.5696 16.8062 29.3164 16.8062C28.9873 16.8062 28.6582 16.9586 28.4557 17.2124L24.9113 21.5536L21.3417 17.2124C21.1392 16.9586 20.8101 16.8062 20.481 16.8062H17.5443C16.9113 16.8062 16.405 17.3394 16.405 17.974C16.405 18.2279 16.5063 18.4818 16.6582 18.6849L21.9493 25.1586L15.2151 33.4347C14.8101 33.9171 14.8354 34.6279 15.3164 35.0341C15.7974 35.4403 16.5063 35.4149 16.9113 34.9326L16.9367 34.9072L23.4177 26.9611L26.3544 23.3815ZM35.2151 16.8062C34.886 16.8062 34.5569 16.9586 34.3544 17.2124L27.8987 25.1586L24.962 28.7635L21.1392 33.4601C20.7341 33.9425 20.7848 34.6533 21.2658 35.0595C21.7468 35.4657 22.4557 35.4149 22.8607 34.9326L26.405 30.5914L29.9493 34.9326C30.1519 35.1865 30.481 35.3388 30.8101 35.3388H33.7468C34.3797 35.3388 34.886 34.831 34.886 34.1964C34.886 33.9171 34.7848 33.6632 34.6076 33.4601L29.3417 26.9864L36.0759 18.7103C36.481 18.2025 36.3797 17.4917 35.8987 17.0855C35.7215 16.9078 35.4683 16.8316 35.2151 16.8062Z" fill="#FFBE40"/>
</g>
<defs>
<clipPath id="clip0_380_1577">
<rect width="180" height="52.2973" fill="white"/>
</clipPath>
</defs>
</svg>
